<mxfile host="app.diagrams.net" modified="2024-02-29T21:34:25.324Z" agent="Mozilla/5.0 (X11; Linux x86_64) AppleWebKit/537.36 (KHTML, like Gecko) Chrome/120.0.0.0 Safari/537.36" etag="5Lv9GoP0ifHltZ9mq0xh" version="23.1.1" type="github">
  <diagram name="Page-1" id="--fInNU0isgxP-RuBjkS">
    <mxGraphModel dx="1364" dy="1893" grid="1" gridSize="10" guides="1" tooltips="1" connect="1" arrows="1" fold="1" page="1" pageScale="1" pageWidth="850" pageHeight="1100" math="0" shadow="0">
      <root>
        <mxCell id="0" />
        <mxCell id="1" parent="0" />
        <mxCell id="bkVAaWuI-M81gNflIwuD-9" value="" style="shape=cube;whiteSpace=wrap;html=1;boundedLbl=1;backgroundOutline=1;darkOpacity=0.05;darkOpacity2=0.1;strokeWidth=4;" parent="1" vertex="1">
          <mxGeometry x="320" y="40" width="45" height="320" as="geometry" />
        </mxCell>
        <mxCell id="bkVAaWuI-M81gNflIwuD-13" value="" style="rounded=0;whiteSpace=wrap;html=1;strokeWidth=4;" parent="1" vertex="1">
          <mxGeometry x="40" y="155" width="20" height="80" as="geometry" />
        </mxCell>
        <mxCell id="bkVAaWuI-M81gNflIwuD-17" value="FCC" style="text;html=1;strokeColor=none;fillColor=none;align=center;verticalAlign=middle;whiteSpace=wrap;rounded=0;fontSize=14;fontStyle=1;strokeWidth=4;" parent="1" vertex="1">
          <mxGeometry x="20" y="255" width="60" height="30" as="geometry" />
        </mxCell>
        <mxCell id="bkVAaWuI-M81gNflIwuD-18" value="Generator" style="text;html=1;strokeColor=none;fillColor=none;align=center;verticalAlign=middle;whiteSpace=wrap;rounded=0;fontSize=20;fontStyle=1" parent="1" vertex="1">
          <mxGeometry x="230" y="470" width="60" height="30" as="geometry" />
        </mxCell>
        <mxCell id="bkVAaWuI-M81gNflIwuD-20" value="" style="shape=cube;whiteSpace=wrap;html=1;boundedLbl=1;backgroundOutline=1;darkOpacity=0.05;darkOpacity2=0.1;strokeWidth=4;" parent="1" vertex="1">
          <mxGeometry x="100" y="120" width="80" height="160" as="geometry" />
        </mxCell>
        <mxCell id="bkVAaWuI-M81gNflIwuD-21" value="" style="shape=cube;whiteSpace=wrap;html=1;boundedLbl=1;backgroundOutline=1;darkOpacity=0.05;darkOpacity2=0.1;strokeWidth=4;" parent="1" vertex="1">
          <mxGeometry x="210" y="80" width="70" height="240" as="geometry" />
        </mxCell>
        <mxCell id="bkVAaWuI-M81gNflIwuD-22" value="" style="shape=cube;whiteSpace=wrap;html=1;boundedLbl=1;backgroundOutline=1;darkOpacity=0.05;darkOpacity2=0.1;strokeWidth=4;" parent="1" vertex="1">
          <mxGeometry x="405" width="35" height="400" as="geometry" />
        </mxCell>
        <mxCell id="bkVAaWuI-M81gNflIwuD-23" value="" style="shape=cube;whiteSpace=wrap;html=1;boundedLbl=1;backgroundOutline=1;darkOpacity=0.05;darkOpacity2=0.1;strokeWidth=4;" parent="1" vertex="1">
          <mxGeometry x="627.5" y="40" width="45" height="320" as="geometry" />
        </mxCell>
        <mxCell id="bkVAaWuI-M81gNflIwuD-43" style="edgeStyle=orthogonalEdgeStyle;rounded=0;orthogonalLoop=1;jettySize=auto;html=1;strokeWidth=4;" parent="1" source="bkVAaWuI-M81gNflIwuD-24" edge="1">
          <mxGeometry relative="1" as="geometry">
            <mxPoint x="990" y="190" as="targetPoint" />
          </mxGeometry>
        </mxCell>
        <mxCell id="bkVAaWuI-M81gNflIwuD-24" value="" style="rounded=0;whiteSpace=wrap;html=1;strokeWidth=4;" parent="1" vertex="1">
          <mxGeometry x="930" y="150" width="20" height="80" as="geometry" />
        </mxCell>
        <mxCell id="bkVAaWuI-M81gNflIwuD-25" value="FCC" style="text;html=1;strokeColor=none;fillColor=none;align=center;verticalAlign=middle;whiteSpace=wrap;rounded=0;fontSize=14;fontStyle=1;strokeWidth=4;" parent="1" vertex="1">
          <mxGeometry x="910" y="250" width="60" height="30" as="geometry" />
        </mxCell>
        <mxCell id="bkVAaWuI-M81gNflIwuD-27" value="" style="shape=cube;whiteSpace=wrap;html=1;boundedLbl=1;backgroundOutline=1;darkOpacity=0.05;darkOpacity2=0.1;strokeWidth=4;" parent="1" vertex="1">
          <mxGeometry x="810" y="115" width="80" height="160" as="geometry" />
        </mxCell>
        <mxCell id="bkVAaWuI-M81gNflIwuD-28" value="" style="shape=cube;whiteSpace=wrap;html=1;boundedLbl=1;backgroundOutline=1;darkOpacity=0.05;darkOpacity2=0.1;strokeWidth=4;" parent="1" vertex="1">
          <mxGeometry x="707.5" y="75" width="70" height="240" as="geometry" />
        </mxCell>
        <mxCell id="bkVAaWuI-M81gNflIwuD-29" value="" style="shape=cube;whiteSpace=wrap;html=1;boundedLbl=1;backgroundOutline=1;darkOpacity=0.05;darkOpacity2=0.1;strokeWidth=4;" parent="1" vertex="1">
          <mxGeometry x="547.5" width="35" height="400" as="geometry" />
        </mxCell>
        <mxCell id="bkVAaWuI-M81gNflIwuD-30" value="Discriminator" style="text;html=1;strokeColor=none;fillColor=none;align=center;verticalAlign=middle;whiteSpace=wrap;rounded=0;fontSize=20;fontStyle=1" parent="1" vertex="1">
          <mxGeometry x="760" y="470" width="60" height="30" as="geometry" />
        </mxCell>
        <mxCell id="bkVAaWuI-M81gNflIwuD-31" value="Conv 2D&amp;nbsp;" style="text;html=1;strokeColor=none;fillColor=none;align=center;verticalAlign=middle;whiteSpace=wrap;rounded=0;fontSize=14;fontStyle=1;strokeWidth=4;" parent="1" vertex="1">
          <mxGeometry x="105" y="300" width="70" height="30" as="geometry" />
        </mxCell>
        <mxCell id="bkVAaWuI-M81gNflIwuD-32" value="Conv 2D&amp;nbsp;" style="text;html=1;strokeColor=none;fillColor=none;align=center;verticalAlign=middle;whiteSpace=wrap;rounded=0;fontSize=14;fontStyle=1;strokeWidth=4;" parent="1" vertex="1">
          <mxGeometry x="210" y="340" width="70" height="30" as="geometry" />
        </mxCell>
        <mxCell id="bkVAaWuI-M81gNflIwuD-33" value="Conv 2D&amp;nbsp;" style="text;html=1;strokeColor=none;fillColor=none;align=center;verticalAlign=middle;whiteSpace=wrap;rounded=0;fontSize=14;fontStyle=1;strokeWidth=4;" parent="1" vertex="1">
          <mxGeometry x="307.5" y="380" width="70" height="30" as="geometry" />
        </mxCell>
        <mxCell id="bkVAaWuI-M81gNflIwuD-34" value="Conv 2D&amp;nbsp;" style="text;html=1;strokeColor=none;fillColor=none;align=center;verticalAlign=middle;whiteSpace=wrap;rounded=0;fontSize=14;fontStyle=1;strokeWidth=4;" parent="1" vertex="1">
          <mxGeometry x="820" y="310" width="70" height="30" as="geometry" />
        </mxCell>
        <mxCell id="bkVAaWuI-M81gNflIwuD-35" value="Conv 2D&amp;nbsp;" style="text;html=1;strokeColor=none;fillColor=none;align=center;verticalAlign=middle;whiteSpace=wrap;rounded=0;fontSize=14;fontStyle=1;strokeWidth=4;" parent="1" vertex="1">
          <mxGeometry x="717.5" y="350" width="70" height="30" as="geometry" />
        </mxCell>
        <mxCell id="bkVAaWuI-M81gNflIwuD-36" value="Conv 2D&amp;nbsp;" style="text;html=1;strokeColor=none;fillColor=none;align=center;verticalAlign=middle;whiteSpace=wrap;rounded=0;fontSize=14;fontStyle=1;strokeWidth=4;" parent="1" vertex="1">
          <mxGeometry x="627.5" y="390" width="70" height="30" as="geometry" />
        </mxCell>
        <mxCell id="bkVAaWuI-M81gNflIwuD-37" value="Conv 2D&amp;nbsp;" style="text;html=1;strokeColor=none;fillColor=none;align=center;verticalAlign=middle;whiteSpace=wrap;rounded=0;fontSize=14;fontStyle=1" parent="1" vertex="1">
          <mxGeometry x="530" y="420" width="70" height="30" as="geometry" />
        </mxCell>
        <mxCell id="bkVAaWuI-M81gNflIwuD-44" value="" style="rounded=1;whiteSpace=wrap;html=1;fillColor=none;dashed=1;" parent="1" vertex="1">
          <mxGeometry x="20" y="-60" width="460" height="560" as="geometry" />
        </mxCell>
        <mxCell id="bkVAaWuI-M81gNflIwuD-45" value="" style="rounded=1;whiteSpace=wrap;html=1;fillColor=none;dashed=1;" parent="1" vertex="1">
          <mxGeometry x="510" y="-60" width="570" height="560" as="geometry" />
        </mxCell>
        <mxCell id="bkVAaWuI-M81gNflIwuD-38" value="Conv 2D&amp;nbsp;" style="text;html=1;strokeColor=none;fillColor=none;align=center;verticalAlign=middle;whiteSpace=wrap;rounded=0;fontSize=14;fontStyle=1" parent="1" vertex="1">
          <mxGeometry x="390" y="420" width="70" height="30" as="geometry" />
        </mxCell>
        <mxCell id="bkVAaWuI-M81gNflIwuD-46" value="Fake Image or Not" style="text;html=1;strokeColor=none;fillColor=none;align=center;verticalAlign=middle;whiteSpace=wrap;rounded=0;fontStyle=2;fontSize=16;" parent="1" vertex="1">
          <mxGeometry x="1002.5" y="175" width="60" height="30" as="geometry" />
        </mxCell>
      </root>
    </mxGraphModel>
  </diagram>
</mxfile>
